<?xml version="1.0" encoding="UTF-8"?>
<!DOCTYPE svg PUBLIC "-//W3C//DTD SVG 1.1//EN" "http://www.w3.org/Graphics/SVG/1.1/DTD/svg11.dtd">
<!-- Creator: CorelDRAW X7 -->
<svg xmlns="http://www.w3.org/2000/svg" xml:space="preserve" width="200mm" height="150mm" version="1.1" style="shape-rendering:geometricPrecision; text-rendering:geometricPrecision; image-rendering:optimizeQuality; fill-rule:evenodd; clip-rule:evenodd"
viewBox="0 0 20000 15000"
 xmlns:xlink="http://www.w3.org/1999/xlink">
 <defs>
  <style type="text/css">
   <![CDATA[
    .str0 {stroke:#ED1C23;stroke-width:35.28}
    .fil0 {fill:none}
    .fil2 {fill:#116441;fill-rule:nonzero}
    .fil4 {fill:#7EC344;fill-rule:nonzero}
    .fil6 {fill:#DD2426;fill-rule:nonzero}
    .fil5 {fill:#ED1C23;fill-rule:nonzero}
    .fil1 {fill:#FFF200;fill-rule:nonzero}
    .fil3 {fill:white;fill-rule:nonzero}
   ]]>
  </style>
 </defs>
 <g id="Layer_x0020_1">
  <metadata id="CorelCorpID_0Corel-Layer"/>
  <rect class="fil0" width="20000" height="15000"/>
 </g>
 <g id="__x0023_Layer_x0020_1">
  <metadata id="CorelCorpID_1Corel-Layer"/>
  <g id="_2093733428144">
   <path class="fil1" d="M10112 14061c-2606,0 -7590,-1171 -7801,-1219l-206 -54c0,0 -235,-1414 -173,-3499 40,-1357 317,-2786 329,-2846l27 -136 130 -47c41,-15 4177,-1492 7949,-1492 3202,0 7061,1584 7224,1652l109 44 32 113c13,45 317,1118 344,2959 29,1924 -264,3213 -264,3213l-188 50c-187,50 -4606,1262 -7512,1262z"/>
   <path class="fil2" d="M10112 13770c2908,0 7449,-1207 7449,-1207 0,0 300,-1112 271,-3023 -27,-1830 -334,-2895 -334,-2895 0,0 -3941,-1633 -7131,-1633 -3773,0 -7867,1478 -7867,1478 0,0 -284,1454 -324,2806 -62,2081 189,3308 189,3308 0,0 5138,1166 7747,1166z"/>
   <g>
    <path class="fil3" d="M17103 9600c2,-137 -28,-274 -85,-399 -97,-225 -313,-395 -557,-431 -92,-6 -185,-7 -277,0 -186,26 -347,129 -488,248 -4,-548 1,-1095 -2,-1642 7,-67 -44,-121 -108,-130 -183,-28 -366,-57 -547,-91 -56,-11 -114,-11 -169,5 -17,166 -10,332 -11,497 0,1353 0,2705 0,4057 2,134 -9,269 16,401 216,17 425,-52 638,-74 78,-6 187,-30 180,-131 6,-789 -3,-1578 4,-2367 73,-101 208,-170 335,-140 55,17 113,41 149,90 60,78 72,178 94,271 4,571 1,1142 2,1713 1,133 -4,267 5,401 182,14 360,-45 536,-86 92,-9 182,-33 270,-63 14,-54 18,-110 17,-166 -1,-655 1,-1309 -2,-1963z"/>
    <path class="fil3" d="M5035 7585c-20,-18 -41,-48 -72,-41 -236,25 -471,67 -706,99 -365,56 -730,120 -1094,184 -71,16 -163,26 -195,103 1,1196 0,2393 1,3589 -1,56 -4,111 -8,167 54,89 168,83 258,106 544,112 1091,210 1639,298 55,7 111,5 167,4 33,-124 14,-253 22,-380 6,-94 1,-188 -5,-281 -24,-84 -118,-96 -192,-101 -218,-23 -436,-45 -653,-75 -114,-14 -228,-31 -344,-32 -12,-380 -4,-761 -3,-1140 191,7 382,25 574,21 140,-6 286,28 421,-21 1,-191 3,-382 1,-573 1,-43 -8,-101 -60,-107 -156,-23 -314,5 -471,7 -155,1 -311,2 -467,4 0,-338 0,-676 -1,-1013 169,-31 340,-37 509,-61 210,-10 418,-43 628,-52 82,-81 63,-204 69,-309 -5,-131 13,-266 -18,-396z"/>
    <path class="fil3" d="M14368 10880c-79,-7 -127,70 -167,126 -121,189 -297,364 -524,409 -192,41 -392,-53 -509,-204 -141,-178 -198,-407 -216,-630 448,-97 895,-200 1344,-295 123,-20 203,-136 210,-255 18,-249 -47,-497 -136,-728 -102,-246 -261,-482 -499,-611 -264,-151 -606,-155 -872,-9 -241,126 -418,351 -529,596 -137,296 -193,622 -213,945 -27,259 -2,519 17,778 46,352 134,710 332,1010 123,165 286,309 487,368 266,75 563,33 799,-109 268,-162 442,-442 540,-732 50,-171 109,-349 75,-528 -18,-63 -65,-136 -139,-131zm-1471 -1023l0 0c6,42 8,84 17,125 -20,-182 23,-368 102,-532 58,-120 178,-223 318,-213 112,-7 209,71 261,164 83,139 96,304 117,461 -215,53 -433,90 -649,139 -56,14 -113,22 -170,27 2,-57 4,-114 4,-171z"/>
    <path class="fil3" d="M7175 10685c-53,-105 -121,-205 -204,-290 -205,-215 -481,-337 -719,-509 -138,-98 -215,-271 -198,-439 9,-108 53,-228 155,-280 74,-29 164,-15 219,46 138,142 159,358 296,502 80,82 216,94 316,44 115,-68 164,-204 176,-331 17,-217 -60,-442 -213,-597 -120,-129 -292,-203 -465,-225 -289,-37 -600,21 -832,205 -205,165 -321,422 -352,680 -43,296 14,615 195,858 174,243 450,373 684,549 103,79 215,160 273,281 48,99 49,212 38,319 -22,108 -97,237 -222,231 -90,5 -156,-68 -208,-132 -103,-147 -154,-325 -265,-468 -46,-59 -109,-104 -180,-128 -125,-37 -265,36 -320,152 -74,114 -58,255 -49,383 57,262 225,489 443,641 274,182 617,239 939,184 124,-35 242,-99 331,-194 154,-156 230,-371 266,-583 16,-150 10,-302 8,-452 0,-156 -49,-306 -112,-447z"/>
    <path class="fil3" d="M12562 8122c24,-36 58,-71 52,-118 2,-195 2,-390 0,-585 1,-57 -33,-122 -95,-128 -108,-18 -1962,-73 -2250,-79 -50,-6 -96,15 -139,39 -26,148 -15,299 -17,450 1,104 -6,209 19,311 20,57 89,53 137,60 213,4 427,1 640,7 14,282 -8,2417 0,3797 3,162 -7,324 7,486 1,68 62,121 130,114 225,-26 453,-7 679,-27 34,-16 69,-40 84,-77 10,-53 8,-108 9,-162 0,-1331 0,-2661 -1,-3992 0,-41 9,-82 18,-121 243,0 484,27 727,25z"/>
   </g>
   <path class="fil4" d="M7997 13336c0,0 119,-212 785,-339 666,-127 1235,-183 1723,-651 488,-468 717,-1235 697,-1708 0,0 -417,127 -1032,270 -615,142 -1058,172 -1525,518 -468,346 -585,869 -615,1164 0,0 844,-1164 2125,-1067 0,0 -829,183 -1449,701 -620,519 -700,922 -709,1112z"/>
   <path class="fil4" d="M9783 10796c0,0 712,-87 1251,-809 539,-721 447,-1103 437,-1179 0,0 -600,41 -1098,402 -498,361 -727,879 -732,1204 0,0 448,-774 1027,-999 0,0 -417,389 -640,750 -224,361 -255,463 -245,631z"/>
   <path class="fil4" d="M8902 11037c134,-28 299,-119 388,-155 89,-35 178,-124 186,-279 8,-156 -8,-532 -158,-821 -150,-290 -538,-600 -768,-844 -231,-245 -342,-411 -400,-723 0,0 -9,-80 -73,22 -64,102 -422,568 -642,1154 -220,586 -163,1140 81,1511 244,372 554,547 618,582 63,36 117,54 185,0 69,-53 252,-233 272,-266 21,-33 8,-458 -89,-992 -96,-533 -254,-950 -254,-950 0,0 254,259 397,844 142,584 114,660 119,742 5,81 -10,206 138,175z"/>
   <path class="fil3" d="M8252 11314l-52 -51 98 -110c-12,-17 -26,-36 -41,-56l-121 108 -61 -67 134 -112c-12,-19 -24,-38 -37,-58l-142 111 -52 -60 154 -118c-12,-20 -24,-41 -36,-63l-160 119 -49 -79 165 -125c-10,-20 -20,-41 -30,-62l-174 121 -59 -76 198 -123c-10,-23 -19,-46 -28,-70l-186 120 -62 -78 218 -123c-9,-27 -18,-55 -26,-83l-201 122 -28 -82 210 -111c-6,-26 -12,-52 -18,-79l-206 124 -19 -100 211 -101c-4,-27 -7,-55 -10,-83l-219 103 -18 -88 231 -99c0,-9 -1,-19 -1,-28 -1,-20 0,-39 0,-58l-236 88 0 -85 237 -99c1,-29 2,-57 4,-85l-222 98 0 -106 229 -79c3,-31 7,-62 11,-93l-225 71 34 -108 209 -71c4,-23 8,-47 13,-69l-200 54 31 -95 183 -21c7,-27 14,-53 21,-78l-184 29 27 -84 180 -22c7,-21 14,-43 21,-63l-148 8 52 -105 133 0c8,-20 16,-39 24,-57l-142 0 63 -100 126 0c11,-22 21,-43 32,-63l-124 0 63 -90 107 6c11,-19 21,-36 30,-52 0,0 -68,-139 -88,-250 0,0 -339,457 -532,949 -194,491 -241,940 -73,1311 168,371 432,586 742,788l153 -163c0,0 -15,-16 -38,-45l-96 96z"/>
   <path class="fil3" d="M9078 10773l-14 -76 162 -76c-1,-18 -3,-36 -4,-55l-168 59 -6 -61 168 -55c-3,-20 -5,-41 -8,-62l-179 67 -9 -47 178 -82c-3,-18 -6,-36 -10,-55l-170 71 -10 -41 170 -76c-3,-15 -6,-31 -10,-46l-171 65 -9 -49 167 -69c-6,-20 -11,-40 -17,-61l-163 70 -20 -47 163 -83c-6,-21 -14,-42 -22,-63l-159 80 -14 -46 158 -75c-7,-16 -13,-32 -20,-48l-146 69 -18 -56 141 -65c-4,-8 -8,-17 -12,-25 -3,-7 -7,-14 -11,-21l-136 57 -18 -46 128 -62c-9,-18 -18,-35 -27,-52l-132 66 -21 -49 128 -62c-10,-17 -20,-34 -31,-51l-117 67 -32 -58 121 -56c-11,-16 -22,-33 -32,-49l-112 62 -26 -57 107 -49c-8,-12 -16,-24 -25,-35l-106 39 -16 -51 94 -26c-13,-17 -26,-34 -39,-50l-98 19 -6 -42 63 -27c-11,-12 -22,-24 -33,-36l-88 26 -17 -37 69 -28c-12,-13 -25,-25 -37,-37l-89 13 -28 -43 76 -10c-16,-14 -32,-27 -47,-40l-85 8 -17 -42 51 -7c-82,-62 -163,-107 -237,-131 0,0 360,517 502,1004 143,486 179,1004 179,1004 0,0 137,-64 348,-130 0,0 3,-44 1,-117l-152 74z"/>
   <path class="fil3" d="M10105 10504l24 -46 171 -14c9,-13 19,-28 29,-43l-164 -5 30 -48 172 0c15,-22 32,-45 50,-69l-184 0 44 -54 174 8c14,-19 28,-38 43,-57l-182 0 43 -60 178 7c13,-17 25,-33 38,-50l-171 -18 41 -43 169 9c17,-22 33,-44 50,-66l-184 -6 48 -49 177 0c11,-15 22,-30 33,-45l-172 -2 42 -51 169 0c5,-7 10,-14 14,-20 10,-14 19,-27 29,-40l-156 0 47 -58 149 0c10,-14 19,-28 28,-41l-131 0 50 -58 120 0c13,-20 26,-39 38,-58l-117 0 55 -63 103 0c9,-14 18,-28 27,-42l-83 0 50 -53 66 0c73,-115 119,-195 119,-195 0,0 -503,325 -879,778 -376,452 -407,722 -407,722 173,-54 343,-125 343,-125 7,-13 15,-29 25,-45l-158 0z"/>
   <path class="fil3" d="M8538 12781l97 -84 169 13c32,-29 66,-60 103,-92l-162 -18 80 -78 187 10c31,-26 64,-51 98,-77l-183 0 81 -66 193 0c37,-25 75,-51 114,-75l-192 0 111 -85 206 10c24,-13 48,-26 72,-39 20,-10 39,-20 59,-30l-240 -12 117 -68 230 21c30,-16 86,-43 115,-59l-241 -24 145 -61 197 29c48,-26 77,-43 122,-69l-194 -31 112 -50 195 17c34,-20 67,-39 99,-58l-170 -16 130 -53 156 0c138,-83 239,-146 280,-173 0,0 -763,41 -1393,424 -630,383 -857,698 -1084,1078 0,0 139,-65 420,-119 0,0 51,-58 140,-145l-169 -20z"/>
   <path class="fil3" d="M8497 11887l55 -83 133 -15c17,-23 36,-45 55,-67l-126 9 70 -64 106 0c17,-17 33,-33 50,-49l-125 0 64 -55 115 6c26,-23 52,-45 79,-66l-128 -7 66 -56 130 11c238,-176 473,-287 473,-287 -150,18 -549,104 -884,399 -336,295 -430,666 -430,666 133,-128 419,-338 419,-338 8,-13 15,-26 23,-39l-145 35z"/>
   <path class="fil5" d="M13807 6294c0,153 -124,277 -277,277l-7092 0c-153,0 -277,-124 -277,-277l0 -5078c0,-153 124,-277 277,-277l7092 0c153,0 277,124 277,277l0 5078z"/>
   <path class="fil1" d="M13677 3938c0,167 -135,302 -302,302l-6782 0c-167,0 -302,-135 -302,-302l0 -2553c0,-167 135,-303 302,-303l6782 0c167,0 302,136 302,303l0 2553z"/>
   <g>
    <path class="fil3" d="M6802 4516l912 0c198,0 347,47 446,141 99,95 148,229 148,404 0,179 -54,319 -161,420 -108,101 -273,151 -494,151l-300 0 0 659 -551 0 0 -1775zm551 757l0 0 134 0c106,0 180,-19 223,-55 43,-37 64,-84 64,-142 0,-55 -18,-102 -56,-141 -37,-39 -107,-58 -209,-58l-156 0 0 396z"/>
    <path class="fil3" d="M8526 5405c0,-290 81,-516 242,-677 162,-162 387,-243 675,-243 295,0 523,80 683,238 160,159 240,381 240,667 0,208 -35,378 -105,511 -70,132 -171,236 -303,310 -132,73 -296,110 -493,110 -201,0 -366,-32 -497,-95 -132,-64 -238,-165 -320,-303 -81,-138 -122,-311 -122,-518zm549 2l0 0c0,179 33,308 100,386 66,79 157,118 272,118 117,0 209,-39 273,-115 65,-77 97,-215 97,-413 0,-167 -34,-289 -101,-367 -67,-77 -159,-115 -274,-115 -111,0 -200,39 -267,117 -67,79 -100,208 -100,389z"/>
    <path class="fil3" d="M11843 5564l481 146c-32,135 -83,247 -153,338 -69,90 -155,158 -258,204 -103,46 -234,69 -393,69 -193,0 -351,-28 -473,-84 -122,-56 -228,-154 -317,-296 -89,-141 -133,-322 -133,-542 0,-293 78,-519 234,-677 156,-158 377,-237 663,-237 224,0 400,46 528,136 128,91 223,229 285,417l-485 107c-17,-54 -34,-93 -53,-118 -30,-42 -68,-74 -112,-97 -45,-23 -94,-34 -149,-34 -125,0 -220,50 -286,150 -50,74 -75,191 -75,350 0,196 30,331 89,404 60,73 144,110 252,110 105,0 185,-30 238,-89 54,-59 93,-144 117,-257z"/>
    <polygon class="fil3" points="12612,4516 13162,4516 13162,6291 12612,6291 "/>
   </g>
   <g>
    <polygon class="fil3" points="6798,2887 6798,1910 6486,1910 6486,1525 7472,1525 7472,1910 7211,1910 7211,2887 "/>
    <polygon class="fil6" points="6527,1566 7431,1566 7431,1869 7171,1869 7171,2846 6838,2846 6838,1869 6527,1869 "/>
    <polygon class="fil3" points="7591,2887 7591,1525 8385,1525 8385,1916 8007,1916 8007,2004 8385,2004 8385,2367 8007,2367 8007,2494 8385,2494 8385,2887 "/>
    <polygon class="fil6" points="7632,1566 8344,1566 8344,1876 7966,1876 7966,2045 8344,2045 8344,2326 7966,2326 7966,2535 8344,2535 8344,2846 7632,2846 "/>
    <polygon class="fil3" points="9026,2887 9026,2368 8875,2368 8875,2887 8496,2887 8496,1525 8875,1525 8875,2001 9026,2001 9026,1525 9411,1525 9411,2887 "/>
    <polygon class="fil6" points="8536,1566 8835,1566 8835,2042 9067,2042 9067,1566 9370,1566 9370,2846 9067,2846 9067,2328 8835,2328 8835,2846 8536,2846 "/>
   </g>
   <path class="fil5" d="M8782 3438l-3 -46 -97 14 -33 109c0,0 -155,128 -208,156 -52,28 -63,-4 -54,-56 9,-52 73,-211 73,-211l-102 -17 -15 34c0,0 -88,-44 -168,-29 -79,16 -123,46 -162,94 -39,47 -34,118 -34,118 0,0 -168,154 -349,107 0,0 -102,-19 -104,-144 -1,-126 99,-236 161,-286 63,-51 180,-82 231,-67 51,16 30,71 30,71 -24,47 -23,85 55,71 78,-14 53,-184 -28,-206 -81,-22 -210,-34 -324,29 -114,64 -248,171 -248,342 0,171 78,263 225,273 147,11 289,-85 356,-133 0,0 36,105 144,105 108,0 141,-52 153,-64 0,0 38,89 120,53 81,-36 223,-149 223,-149l-128 327 128 0c0,0 51,-188 75,-261 24,-73 100,-193 180,-198 79,-5 79,91 30,134 -49,42 -196,88 -83,103 114,15 202,-73 219,-158 17,-84 -55,-256 -263,-115zm-537 224l0 0c-83,66 -137,-4 -149,-39 -12,-36 8,-95 79,-144 72,-49 158,-14 158,-14 0,0 -5,131 -88,197z"/>
   <path class="fil3 str0" d="M12324 4063c89,-132 365,-364 614,-565 249,-201 414,-406 503,-577 89,-170 130,-351 137,-546 8,-196 -145,-486 -526,-486 -317,0 -507,211 -602,331l162 129c0,0 217,-256 463,-256 247,0 328,241 236,528 -91,288 -381,518 -627,656 -247,138 -360,786 -360,786z"/>
   <path class="fil5" d="M12491 3667c0,0 383,-159 617,-436 234,-277 447,-503 356,-976 0,0 71,336 -178,679 -317,436 -747,602 -747,602l-48 131z"/>
   <path class="fil5" d="M12578 3453c0,0 416,-202 625,-477 210,-275 205,-434 205,-483 0,0 -33,251 -254,499 -236,265 -576,395 -576,395l0 66z"/>
   <path class="fil5" d="M12544 2332c0,0 196,-190 301,-242 106,-52 182,-58 287,-53 0,0 -169,-51 -335,42 -167,92 -300,235 -300,235l47 18z"/>
   <path class="fil5" d="M12460 2264c0,0 266,-304 520,-293 0,0 -253,19 -496,315l-24 -22z"/>
   <g>
    <path class="fil3 str0" d="M10665 3158c0,0 -157,-56 -302,-224 -145,-168 -219,-364 -259,-511 -41,-147 -110,-389 -206,-432 -97,-43 -164,-39 -223,-31 -59,9 -115,41 -37,116 78,74 105,164 140,250 36,87 110,326 163,561 53,235 314,1037 957,976 644,-61 -233,-705 -233,-705z"/>
    <path class="fil5" d="M10643 3224c0,0 -158,-69 -265,-176 -106,-106 -213,-277 -277,-460 -63,-183 -137,-439 -180,-511l-22 12c0,0 65,143 139,413 75,268 203,492 329,606 149,134 291,205 291,205l137 49 -44 -97 -108 -41z"/>
    <path class="fil5" d="M10538 3496c-165,-125 -357,-357 -420,-621 0,0 198,563 748,619 -14,-52 -50,-97 -132,-108 -225,-29 -348,-180 -473,-335 -124,-155 -241,-508 -277,-623 -36,-114 -137,-312 -137,-312l-30 7c0,0 89,181 134,320 46,140 87,318 132,468 46,150 170,427 390,612 220,185 370,181 370,181 0,0 11,-30 20,-71 -70,-13 -207,-49 -325,-137z"/>
    <g>
     <path class="fil5" d="M10826 3801c-533,-68 -775,-644 -874,-1107 -69,-320 -202,-567 -207,-578l35 -2c5,12 141,245 211,572 97,450 318,999 819,1061l16 54z"/>
    </g>
    <path class="fil5" d="M9851 2036c0,12 -35,21 -79,21 -44,0 -80,-9 -80,-21 0,-12 36,-21 80,-21 44,0 79,9 79,21z"/>
   </g>
   <path class="fil3 str0" d="M12768 2474l-438 -351 0 -168c0,0 -175,-419 -658,-419 -446,0 -658,419 -658,419l0 146 -437 373c0,0 -48,282 83,803 149,590 333,803 333,803 0,0 0,16 0,74 0,58 42,86 95,86l584 0 557 0c53,0 95,-28 95,-86 0,-58 0,-91 0,-91 0,0 220,-267 360,-786 139,-518 84,-803 84,-803z"/>
   <path class="fil5" d="M11148 4117l0 61c0,0 -101,26 -101,-53l101 -8z"/>
   <path class="fil5" d="M11231 4117c0,0 -42,31 -42,61l843 0 0 -48 -801 -13z"/>
   <polygon class="fil5" points="12108,4126 12108,4185 12248,4185 12248,4126 "/>
   <path class="fil5" d="M11115 4060c0,0 -165,-336 -226,-698 -61,-362 -81,-842 -81,-842l-191 11 121 39 -111 48 126 54 -126 36 117 54 -120 32 136 50 -115 34 118 53 -113 40 136 52 -122 49 125 41 -117 51 142 43 -118 46 130 44 -110 51 120 37 -95 53 120 37 -89 52 116 46 -94 37 110 40 -66 42 102 49 -74 43 108 41 -70 48 105 47 -46 53 93 39 -56 36 115 12z"/>
   <polygon class="fil5" points="10568,2502 10774,2502 10617,2455 "/>
   <polygon class="fil5" points="10949,2470 10725,2455 10866,2426 10744,2389 10935,2366 10817,2330 10990,2309 10893,2269 11025,2241 10945,2215 11075,2180 11046,2140 11319,2140 11144,2172 "/>
   <path class="fil5" d="M11183 2105l0 -115 -97 0c0,0 -13,21 -13,58 0,36 35,57 62,57 26,0 48,0 48,0z"/>
   <path class="fil5" d="M12158 2105l0 -115 118 0c0,0 -1,42 -1,78 0,36 -26,37 -58,37 -32,0 -59,0 -59,0z"/>
   <path class="fil5" d="M11183 1947c0,0 155,-223 368,-375 0,0 -232,105 -400,348l-78 35 110 -8z"/>
   <path class="fil5" d="M12043 4060l-699 0 226 -36 -244 -40 359 -28 -389 -38 389 -51 -389 -36 373 -30 -396 -46 400 -41 -420 -53 434 -56 -460 -46 446 -58 -446 -33 446 -43 -464 -36 453 -53 -453 -46 483 -43 -503 -36 484 -38 -484 -47 518 -28 -518 -50 513 -44 -504 -47 507 -46 -495 -41 502 -40 -500 -54 505 -43 -503 -34 508 -30 -513 -53 513 -39 -810 -45 0 -12 1418 28c0,0 21,383 -45,780 -66,396 -242,732 -242,732z"/>
   <polygon class="fil5" points="12325,2470 11248,2470 11593,2423 11248,2387 11727,2365 11266,2305 11731,2271 11287,2227 12115,2157 "/>
   <path class="fil5" d="M12088 2114c0,0 0,-52 0,-77 0,-26 -27,-47 -69,-47 -43,0 -756,0 -756,0l156 48 -171 67 840 9z"/>
   <path class="fil5" d="M12054 1937c0,0 -112,-292 -382,-401l-74 62 63 24 -110 30 134 49 -221 22 228 32 -287 24 263 41 -309 30 297 61 -344 44 742 -18z"/>
   <path class="fil5" d="M12161 1935l107 0c0,0 -199,-276 -463,-374 0,0 275,186 356,374z"/>
   <polygon class="fil5" points="12447,2502 12684,2489 12287,2174 12217,2174 12295,2212 12234,2235 12356,2271 12292,2288 12404,2314 12325,2354 12480,2398 12381,2418 12536,2455 "/>
   <path class="fil5" d="M12450 2535l234 18c0,0 28,272 -105,770 -132,498 -331,755 -331,755l-118 0 87 -46 -59 -28 90 -46 -31 -53 70 -8 -39 -56 77 -20 -66 -66 112 -18 -95 -51 132 -23 -103 -45 135 -38 -107 -46 135 -48 -97 -49 114 -38 -114 -37 145 -56 -135 -39 158 -51 -131 -58 166 -28 -166 -54 192 -43 -181 -76 193 -46 -185 -43 183 -74 -186 -46 183 -50 -185 -37 188 -60 -160 -66z"/>
   <path class="fil3 str0" d="M11866 1442c0,65 -90,119 -201,119 -111,0 -201,-54 -201,-119 0,-66 90,-120 201,-120 111,0 201,54 201,120z"/>
   <path class="fil5" d="M11578 1442c0,0 83,26 136,0 52,-27 72,-33 72,0 0,32 -78,78 -145,64 -68,-13 -102,-63 -63,-64z"/>
  </g>
 </g>
</svg>
